<svg xmlns="http://www.w3.org/2000/svg" viewBox="0 0 800 800" fill="none"><defs></defs><rect x="0" y="0" width="800" height="800" rx="0" fill="#020617" /><path d="M 0 7 L 800 7" fill="none" stroke="#94a3b8" stroke-width="2" opacity="0.35"/><path d="M 0 58 L 800 58" fill="none" stroke="#94a3b8" stroke-width="2" opacity="0.35"/><path d="M 0 112 L 800 112" fill="none" stroke="#94a3b8" stroke-width="2" opacity="0.35"/><path d="M 0 170 L 800 170" fill="none" stroke="#94a3b8" stroke-width="2" opacity="0.35"/><path d="M 0 231 L 800 231" fill="none" stroke="#94a3b8" stroke-width="2" opacity="0.35"/><path d="M 0 281 L 800 281" fill="none" stroke="#94a3b8" stroke-width="2" opacity="0.35"/><path d="M 0 337 L 800 337" fill="none" stroke="#94a3b8" stroke-width="2" opacity="0.35"/><path d="M 0 395 L 800 395" fill="none" stroke="#94a3b8" stroke-width="2" opacity="0.35"/><path d="M 0 454 L 800 454" fill="none" stroke="#94a3b8" stroke-width="2" opacity="0.35"/><path d="M 0 505 L 800 505" fill="none" stroke="#94a3b8" stroke-width="2" opacity="0.35"/><path d="M 0 567 L 800 567" fill="none" stroke="#94a3b8" stroke-width="2" opacity="0.35"/><path d="M 0 621 L 800 621" fill="none" stroke="#94a3b8" stroke-width="2" opacity="0.35"/><path d="M 0 677 L 800 677" fill="none" stroke="#94a3b8" stroke-width="2" opacity="0.35"/><path d="M 0 735 L 800 735" fill="none" stroke="#94a3b8" stroke-width="2" opacity="0.35"/><path d="M 0 788 L 800 788" fill="none" stroke="#94a3b8" stroke-width="2" opacity="0.35"/></svg>